#!OML:ASF F:\VICON\USERDATA\INSTALL\rory3\rory3.ASF
:FULLY-SPECIFIED
:DEGREES
687
root -1.04203 18.0433 2.0992 349.963 -87.5315 8.67684
lowerback 8.7695 2.19563 0.852012
upperback 0.249407 2.9879 -0.0872973
thorax -4.60733 1.45139 -0.943477
lowerneck -21.2811 -5.31458 -12.0073
upperneck 29.3969 -6.43006 8.01228
head 14.3352 -3.18784 4.07094
rclavicle 2.09407e-014 -3.97569e-016
rhumerus -37.8235 -13.0628 -78.9532
rradius 33.6668
rwrist 5.89256
rhand -13.9698 9.54329
rfingers 7.12502
rthumb 12.1582 -20.0834
lclavicle 2.09407e-014 -3.97569e-016
lhumerus -37.9087 7.07778 82.4982
lradius 34.7287
lwrist -3.76942
lhand -18.1034 24.2821
lfingers 7.12502
lthumb 8.17051 54.1041
rfemur -3.861 -3.29619 22.9306
rtibia 25.312
rfoot -15.8143 -4.83176
rtoes 12.3813
lfemur -0.00142193 -5.99752 -22.1099
ltibia 14.9444
lfoot -8.03929 -0.927324
ltoes -6.17121
688
root -1.03546 18.0461 2.08673 350.5 -87.4789 8.12402
lowerback 8.76067 2.12115 0.75564
upperback 0.315084 2.88016 -0.0336648
thorax -4.54355 1.40109 -0.81851
lowerneck -21.3709 -5.27601 -11.9089
upperneck 29.3352 -6.35813 7.92411
head 14.3099 -3.15278 4.02875
rclavicle -5.03795e-014 3.08116e-015
rhumerus -37.7019 -13.0098 -78.9731
rradius 33.6095
rwrist 6.04448
rhand -14.0037 9.47054
rfingers 7.12502
rthumb 12.1256 -20.1581
lclavicle -5.03795e-014 3.08116e-015
lhumerus -37.8077 6.95005 82.7357
lradius 34.7767
lwrist -3.70299
lhand -17.6978 23.9952
lfingers 7.12502
lthumb 8.56201 53.8016
rfemur -3.7692 -3.47717 22.9598
rtibia 25.1107
rfoot -15.6933 -4.61396
rtoes 12.6059
lfemur -0.0130539 -5.92612 -22.0322
ltibia 14.9439
lfoot -8.14802 -1.04064
ltoes -6.08146
689
root -1.02756 18.0476 2.07426 350.462 -87.4647 8.08165
lowerback 8.92671 2.06405 0.623112
upperback 0.326078 2.79495 0.0454043
thorax -4.63696 1.36135 -0.658424
lowerneck -21.3536 -5.24632 -11.8771
upperneck 29.2906 -6.3065 7.87217
head 14.2762 -3.13327 4.01033
rclavicle 4.6702e-014 -6.16232e-015
rhumerus -37.6836 -12.8954 -78.9298
rradius 33.5577
rwrist 5.99833
rhand -14.0657 9.36407
rfingers 7.12502
rthumb 12.0658 -20.2681
lclavicle 4.6702e-014 -6.16232e-015
lhumerus -37.8009 6.66228 83.0509
lradius 34.8474
lwrist -3.4063
lhand -17.712 23.7055
lfingers 7.12502
lthumb 8.54823 53.5124
rfemur -3.62045 -3.4582 23.0137
rtibia 24.9387
rfoot -15.5944 -4.56363
rtoes 13.564
lfemur 0.0656694 -5.79057 -21.9713
ltibia 14.9081
lfoot -8.18427 -1.17349
ltoes -6.28764
690
root -1.01813 18.0505 2.06325 352.061 -87.4549 6.40333
lowerback 9.08021 2.05214 0.581033
upperback 0.359749 2.7789 0.137307
thorax -4.69473 1.35427 -0.54292
lowerneck -21.3592 -5.27443 -11.8247
upperneck 29.2269 -6.32523 7.77278
head 14.2458 -3.14624 3.95424
rclavicle -4.25337e-014 3.97569e-016
rhumerus -37.6631 -12.6778 -78.9112
rradius 33.5394
rwrist 5.69845
rhand -14.3668 9.26737
rfingers 7.12502
rthumb 11.7754 -20.3816
lclavicle -4.25337e-014 3.97569e-016
lhumerus -37.722 6.19072 83.4535
lradius 34.9683
lwrist -3.13536
lhand -17.7865 23.3245
lfingers 7.12502
lthumb 8.47635 53.1344
rfemur -3.48918 -3.05323 23.2193
rtibia 24.807
rfoot -15.4659 -5.02071
rtoes 13.7793
lfemur 0.161772 -5.71996 -21.843
ltibia 14.8137
lfoot -8.00039 -1.27359
ltoes -6.45067
691
root -1.01118 18.0547 2.05121 351.833 -87.361 6.62114
lowerback 9.12792 2.03615 0.466885
upperback 0.372532 2.7464 0.152716
thorax -4.71464 1.34054 -0.460446
lowerneck -21.3615 -5.31125 -11.7377
upperneck 29.1994 -6.39731 7.7361
head 14.2382 -3.17137 3.90916
rclavicle 2.72397e-014 -1.98785e-016
rhumerus -37.7045 -12.6088 -78.8926
rradius 33.5706
rwrist 5.54903
rhand -14.5833 9.11952
rfingers 7.12502
rthumb 11.5667 -20.5413
lclavicle 2.72397e-014 -1.98785e-016
lhumerus -37.6513 5.86499 83.7305
lradius 35.0577
lwrist -3.18575
lhand -17.5175 23.2664
lfingers 7.12502
lthumb 8.736 53.0656
rfemur -3.4206 -2.67845 23.3176
rtibia 24.6776
rfoot -15.3256 -5.4406
rtoes 13.8874
lfemur 0.165745 -5.65458 -21.8144
ltibia 14.7267
lfoot -7.89565 -1.40663
ltoes -7.24216
692
root -1.00748 18.0588 2.03797 351.249 -87.2597 7.26739
lowerback 9.05573 1.98531 0.360343
upperback 0.379715 2.66584 0.118017
thorax -4.67057 1.30312 -0.423393
lowerneck -21.3839 -5.32218 -11.6086
upperneck 29.1834 -6.4568 7.73053
head 14.2375 -3.18228 3.87249
rclavicle 2.41648e-014 -5.56597e-015
rhumerus -37.697 -12.774 -78.8923
rradius 33.5747
rwrist 5.64473
rhand -14.4517 9.10957
rfingers 7.12502
rthumb 11.6936 -20.5441
lclavicle 2.41648e-014 -5.56597e-015
lhumerus -37.5947 5.44627 83.9271
lradius 35.1555
lwrist -3.24969
lhand -17.2141 23.2485
lfingers 7.12502
lthumb 9.02878 53.0353
rfemur -3.43812 -2.57581 23.3535
rtibia 24.5533
rfoot -15.2312 -5.59282
rtoes 14.1152
lfemur 0.0965872 -5.5945 -21.8013
ltibia 14.6564
lfoot -7.87534 -1.54533
ltoes -7.92938
693
root -1.00472 18.0621 2.02615 351.435 -87.2417 7.11157
lowerback 8.99294 1.95776 0.362325
upperback 0.407778 2.62612 0.063709
thorax -4.60371 1.2833 -0.47264
lowerneck -21.3061 -5.35391 -11.5825
upperneck 29.0446 -6.5509 7.84554
head 14.1756 -3.20303 3.89421
rclavicle 8.82728e-015 -1.09332e-015
rhumerus -37.6614 -13.0565 -78.907
rradius 33.512
rwrist 5.77534
rhand -14.2825 9.28438
rfingers 7.12502
rthumb 11.8567 -20.3599
lclavicle 8.82728e-015 -1.09332e-015
lhumerus -37.5152 4.90311 84.111
lradius 35.2723
lwrist -3.17532
lhand -17.0591 23.095
lfingers 7.12502
lthumb 9.17834 52.8752
rfemur -3.44433 -2.64466 23.3988
rtibia 24.443
rfoot -15.1146 -5.55831
rtoes 14.2576
lfemur 0.0665777 -5.57678 -21.7515
ltibia 14.6313
lfoot -7.91566 -1.63312
ltoes -8.04601
